<svg xmlns="http://www.w3.org/2000/svg" viewBox="33 170 569 470">
<g fill="none" stroke="#000" font-family="ArialMT" font-size="9">
 <line x1="310.66" y1="399.811" x2="306" y2="396"/>
 <line x1="420.085" y1="404.212" x2="312.005" y2="396.432"/>
 <path d="M312.005,396.432 c-0.184,2.536-1.939,4.684-4.389,5.367"/>
 <line x1="307.616" y1="401.799" x2="309.232" y2="407.598"/>
 <line x1="456.5" y1="396" x2="420.38" y2="396"/>
 <path d="M420.38,396 c0,5.482-0.394,10.957-1.179,16.382"/>
 <line x1="419.201" y1="412.382" x2="425.158" y2="413.244"/>
 <line x1="456.185" y1="405.742" x2="426.147" y2="403.794"/>
 <path d="M426.147,403.794 c-0.41,6.326-1.32,12.61-2.72,18.794"/>
 <line x1="423.428" y1="422.588" x2="429.299" y2="423.917"/>
 <line x1="455.239" y1="415.442" x2="431.36" y2="412.332"/>
 <path d="M431.36,412.332 c-1.014,7.788-2.753,15.464-5.19,22.929"/>
 <line x1="426.169" y1="435.261" x2="431.892" y2="437.13"/>
 <line x1="446.783" y1="428.476" x2="435.051" y2="425.77"/>
 <path d="M435.051,425.77 c-1.769,7.668-4.217,15.163-7.316,22.396"/>
 <line x1="427.734" y1="448.165" x2="433.267" y2="450.536"/>
 <line x1="453.667" y1="425.062" x2="447.761" y2="423.899"/>
 <path d="M447.761,423.899 c-0.603,3.062-1.304,6.103-2.104,9.118"/>
 <line x1="445.657" y1="433.018" x2="451.477" y2="434.56"/>
 <line x1="441.407" y1="446.391" x2="435.766" y2="444.291"/>
 <path d="M435.766,444.291 c-1.564,4.204-3.332,8.329-5.297,12.361"/>
 <line x1="430.469" y1="456.652" x2="441.292" y2="461.926"/>
 <line x1="448.676" y1="443.896" x2="442.969" y2="441.979"/>
 <path d="M442.969,441.979 c-0.993,2.958-2.081,5.882-3.265,8.771"/>
 <line x1="439.705" y1="450.749" x2="445.275" y2="453.03"/>
 <line x1="429.128" y1="471.59" x2="316.261" y2="402.299"/>
 <path d="M316.261,402.299 c-3.298,5.372-10.182,7.291-15.784,4.399"/>
 <line x1="300.477" y1="406.698" x2="297.715" y2="412.048"/>
 <line x1="436.741" y1="470.545" x2="431.511" y2="467.563"/>
 <path d="M431.512,467.563 c-1.545,2.71-3.178,5.37-4.896,7.974"/>
 <line x1="426.616" y1="475.538" x2="431.642" y2="478.852"/>
 <line x1="396.567" y1="492.633" x2="318.351" y2="409.177"/>
 <path d="M318.35,409.177 c-7.276,6.821-18.706,6.451-25.526-0.826c-3.719-3.968-5.452-9.399-4.718-14.788"/>
 <line x1="288.105" y1="393.563" x2="282.14" y2="392.751"/>
 <line x1="426.015" y1="486.811" x2="411.613" y2="475.914"/>
 <path d="M411.613,475.914 c-9.081,12.001-20.14,22.365-32.704,30.65"/>
 <line x1="378.909" y1="506.564" x2="382.224" y2="511.591"/>
 <line x1="403.11" y1="494.695" x2="398.888" y2="490.404"/>
 <line x1="412.214" y1="493.944" x2="407.789" y2="489.863"/>
 <path d="M407.788,489.863 c-3.041,3.297-6.239,6.445-9.586,9.432"/>
 <line x1="398.202" y1="499.295" x2="406.221" y2="508.277"/>
 <line x1="419.886" y1="494.389" x2="415.33" y2="490.453"/>
 <path d="M415.33,490.453 c-2.04,2.361-4.155,4.655-6.343,6.879"/>
 <line x1="408.986" y1="497.332" x2="413.277" y2="501.555"/>
 <line x1="391.302" y1="512.611" x2="387.747" y2="507.752"/>
 <path d="M387.747,507.752 c-3.62,2.648-7.367,5.119-11.227,7.403"/>
 <line x1="376.521" y1="515.155" x2="382.652" y2="525.517"/>
 <line x1="398.742" y1="514.529" x2="395.032" y2="509.788"/>
 <path d="M395.033,509.788 c-2.457,1.923-4.977,3.765-7.553,5.523"/>
 <line x1="387.48" y1="515.312" x2="390.875" y2="520.283"/>
 <line x1="266.181" y1="432.741" x2="292.727" y2="408.247"/>
 <line x1="264.506" y1="439.615" x2="268.655" y2="435.253"/>
 <path d="M268.655,435.254 c-1.704-1.621-3.3-3.352-4.779-5.181"/>
 <line x1="263.876" y1="430.074" x2="188.989" y2="490.65"/>
 <line x1="263.589" y1="446.856" x2="267.444" y2="442.233"/>
 <path d="M267.445,442.233 c-2.016-1.682-3.921-3.493-5.701-5.423"/>
 <line x1="261.744" y1="436.811" x2="195.36" y2="498.025"/>
 <line x1="263.495" y1="454.411" x2="267.037" y2="449.544"/>
 <path d="M267.037,449.544 c-2.357-1.716-4.599-3.585-6.71-5.596"/>
 <line x1="260.327" y1="443.948" x2="202.196" y2="504.973"/>
 <line x1="264.31" y1="462.231" x2="267.517" y2="457.137"/>
 <path d="M267.517,457.137 c-2.743-1.727-5.366-3.635-7.852-5.714"/>
 <line x1="259.665" y1="451.423" x2="209.468" y2="511.464"/>
 <line x1="266.184" y1="470.282" x2="269.028" y2="464.976"/>
 <path d="M269.028,464.976 c-3.209-1.72-6.294-3.662-9.233-5.812"/>
 <line x1="259.795" y1="459.164" x2="217.144" y2="517.471"/>
 <line x1="269.401" y1="478.551" x2="271.841" y2="473.048"/>
 <path d="M271.841,473.048 c-3.841-1.703-7.549-3.69-11.093-5.946"/>
 <line x1="260.749" y1="467.102" x2="225.193" y2="522.967"/>
 <line x1="274.551" y1="487.041" x2="276.517" y2="481.352"/>
 <path d="M276.517,481.352 c-4.822-1.666-9.495-3.737-13.968-6.192"/>
 <line x1="262.549" y1="475.158" x2="233.582" y2="527.931"/>
 <line x1="282.87" y1="495.692" x2="284.231" y2="489.828"/>
 <path d="M284.231,489.828 c-6.551-1.521-12.924-3.723-19.016-6.569"/>
 <line x1="265.215" y1="483.259" x2="242.273" y2="532.342"/>
 <line x1="296.962" y1="503.982" x2="297.464" y2="497.983"/>
 <path d="M297.465,497.983 c-9.84-0.824-19.509-3.067-28.707-6.66"/>
 <line x1="268.758" y1="491.323" x2="251.232" y2="536.182"/>
 <line x1="314.674" y1="510.051" x2="314.217" y2="504.048"/>
 <path d="M314.218,504.048 c-11.507,0.875-23.079-0.094-34.281-2.869"/>
 <line x1="279.937" y1="501.179" x2="271.249" y2="536.239"/>
 <line x1="330.921" y1="513.793" x2="329.676" y2="507.902"/>
 <path d="M329.675,507.903 c-9.905,2.096-20.046,2.866-30.155,2.293"/>
 <line x1="299.521" y1="510.196" x2="298.498" y2="528.228"/>
 <line x1="339.872" y1="517.798" x2="338.259" y2="511.998"/>
 <path d="M338.259,511.998 c-4.854,1.35-9.788,2.394-14.772,3.126"/>
 <line x1="323.485" y1="515.123" x2="327.856" y2="544.904"/>
 <line x1="349.163" y1="521.209" x2="347.201" y2="515.518"/>
 <path d="M347.201,515.518 c-4.84,1.669-9.776,3.042-14.784,4.111"/>
 <line x1="332.418" y1="519.629" x2="337.449" y2="543.177"/>
 <line x1="358.468" y1="524.134" x2="356.187" y2="518.562"/>
 <path d="M356.187,518.562 c-4.632,1.897-9.368,3.529-14.186,4.891"/>
 <line x1="342.001" y1="523.453" x2="346.91" y2="540.833"/>
 <line x1="367.178" y1="526.889" x2="364.629" y2="521.435"/>
 <path d="M364.629,521.435 c-4.063,1.899-8.218,3.601-12.445,5.096"/>
 <line x1="352.184" y1="526.53" x2="356.199" y2="537.882"/>
 <line x1="374.108" y1="530.207" x2="371.385" y2="524.839"/>
 <path d="M371.384,524.839 c-2.782,1.412-5.608,2.732-8.477,3.962"/>
 <line x1="362.907" y1="528.801" x2="365.278" y2="534.334"/>
 <line x1="306" y1="534.46" x2="306" y2="528.44"/>
 <path d="M306,528.44 c-5.006,0-10.007-0.284-14.981-0.851"/>
 <line x1="291.019" y1="527.59" x2="288.976" y2="545.534"/>
 <line x1="313.017" y1="540.31" x2="312.725" y2="534.297"/>
 <path d="M312.724,534.297 c-4.479,0.218-8.968,0.218-13.448,0"/>
 <line x1="299.276" y1="534.297" x2="298.691" y2="546.322"/>
 <line x1="318.173" y1="546.007" x2="317.686" y2="540.007"/>
 <path d="M317.686,540.007 c-3.11,0.252-6.227,0.404-9.346,0.454"/>
 <line x1="308.34" y1="540.461" x2="308.437" y2="546.48"/>
 <line x1="279.333" y1="544.118" x2="280.4" y2="538.193"/>
 <path d="M280.399,538.193 c-6.143-1.105-12.207-2.608-18.155-4.499"/>
 <line x1="262.244" y1="533.695" x2="260.421" y2="539.432"/>
 <line x1="269.801" y1="542.082" x2="271.249" y2="536.239"/>
 <line x1="187.417" y1="454.978" x2="289.83" y2="404.042"/>
 <line x1="186.845" y1="466.521" x2="192.025" y2="463.454"/>
 <path d="M192.025,463.454 c-3.279-5.54-6.149-11.311-8.588-17.268"/>
 <line x1="183.437" y1="446.187" x2="172.295" y2="450.749"/>
 <line x1="185.384" y1="475.538" x2="190.41" y2="472.224"/>
 <path d="M190.41,472.224 c-2.469-3.744-4.755-7.606-6.849-11.573"/>
 <line x1="183.561" y1="460.65" x2="172.914" y2="466.272"/>
 <line x1="183.107" y1="482.877" x2="188.023" y2="479.402"/>
 <path d="M188.023,479.402 c-1.801-2.549-3.519-5.153-5.151-7.812"/>
 <line x1="182.872" y1="471.59" x2="177.742" y2="474.74"/>
 <line x1="168.644" y1="457.511" x2="174.138" y2="455.051"/>
 <path d="M174.138,455.05 c-1.275-2.847-2.458-5.734-3.546-8.658"/>
 <line x1="170.592" y1="446.391" x2="164.95" y2="448.491"/>
 <line x1="170.597" y1="424.934" x2="288.339" y2="399.773"/>
 <line x1="166.343" y1="433.018" x2="172.162" y2="431.476"/>
 <path d="M172.162,431.475 c-1.149-4.336-2.087-8.724-2.81-13.15"/>
 <line x1="169.352" y1="418.324" x2="157.468" y2="420.265"/>
 <line x1="161.849" y1="439.25" x2="167.614" y2="437.521"/>
 <path d="M167.615,437.521 c-0.897-2.988-1.696-6.005-2.397-9.045"/>
 <line x1="165.217" y1="428.476" x2="159.351" y2="429.828"/>
 <line x1="156.21" y1="410.6" x2="282.034" y2="398.336"/>
 <path d="M282.034,398.336 c-0.364-3.732,0.149-7.497,1.497-10.996"/>
 <line x1="283.531" y1="387.34" x2="277.914" y2="385.175"/>
 <line x1="182.059" y1="371.086" x2="276.49" y2="390.068"/>
 <path d="M276.49,390.068 c0.672-3.342,1.907-6.546,3.652-9.475"/>
 <line x1="280.142" y1="380.593" x2="274.97" y2="377.512"/>
 <line x1="174.293" y1="382.085" x2="180.28" y2="382.717"/>
 <path d="M180.28,382.718 c0.825-7.81,2.376-15.526,4.633-23.048"/>
 <line x1="184.913" y1="359.67" x2="161.849" y2="352.75"/>
 <line x1="167.704" y1="389.276" x2="173.716" y2="389.568"/>
 <path d="M173.716,389.568 c0.243-5,0.77-9.982,1.576-14.922"/>
 <line x1="175.293" y1="374.646" x2="157.469" y2="371.734"/>
 <line x1="161.52" y1="396" x2="167.54" y2="396"/>
 <path d="M167.54,396 c0-4.485,0.218-8.968,0.653-13.432"/>
 <line x1="168.193" y1="382.568" x2="156.21" y2="381.4"/>
 <line x1="155.579" y1="400.873" x2="161.596" y2="400.679"/>
 <path d="M161.596,400.679 c-0.101-3.118-0.101-6.239,0-9.357"/>
 <line x1="161.596" y1="391.321" x2="155.579" y2="391.126"/>
 <line x1="159.351" y1="362.171" x2="182.815" y2="367.584"/>
 <line x1="164.95" y1="343.509" x2="272.148" y2="383.402"/>
 <path d="M272.148,383.402 c1.525-4.098,3.781-7.885,6.659-11.176"/>
 <line x1="278.807" y1="372.226" x2="274.275" y2="368.264"/>
 <line x1="184.624" y1="329.375" x2="269.06" y2="375.723"/>
 <path d="M269.059,375.723 c2.937-5.351,7.001-9.999,11.912-13.625"/>
 <line x1="280.971" y1="362.098" x2="277.395" y2="357.255"/>
 <line x1="176.12" y1="332.711" x2="181.531" y2="335.348"/>
 <path d="M181.531,335.348 c1.965-4.032,4.124-7.966,6.471-11.789"/>
 <line x1="188.002" y1="323.559" x2="177.741" y2="317.26"/>
 <line x1="168.644" y1="334.489" x2="174.138" y2="336.95"/>
 <path d="M174.138,336.95 c1.275-2.847,2.642-5.653,4.099-8.412"/>
 <line x1="178.237" y1="328.538" x2="172.913" y2="325.728"/>
 <line x1="183.107" y1="309.123" x2="266.674" y2="368.199"/>
 <path d="M266.674,368.199 c5.972-8.448,14.506-14.748,24.337-17.968"/>
 <line x1="291.012" y1="350.231" x2="289.138" y2="344.511"/>
 <line x1="196.67" y1="301.546" x2="265.001" y2="360.58"/>
 <path d="M265.001,360.58 c13.116-15.182,33.548-21.873,53.103-17.391"/>
 <line x1="318.104" y1="343.189" x2="319.45" y2="337.321"/>
 <line x1="188.988" y1="301.351" x2="193.668" y2="305.136"/>
 <path d="M193.669,305.136 c1.962-2.426,4.002-4.787,6.117-7.081"/>
 <line x1="199.786" y1="298.056" x2="195.361" y2="293.975"/>
 <line x1="285.958" y1="295.642" x2="294.21" y2="336.966"/>
 <path d="M294.211,336.966 c16.877-3.37,34.389,0.644,48.113,11.028"/>
 <line x1="342.324" y1="347.994" x2="345.956" y2="343.193"/>
 <line x1="262.122" y1="290.371" x2="266.741" y2="301.49"/>
 <path d="M266.74,301.49 c12.427-5.162,25.751-7.823,39.208-7.83"/>
 <line x1="305.948" y1="293.66" x2="305.945" y2="287.64"/>
 <line x1="243.632" y1="293.013" x2="246.75" y2="298.162"/>
 <path d="M246.75,298.162 c9.855-5.968,20.555-10.413,31.738-13.184"/>
 <line x1="278.489" y1="284.978" x2="269.801" y2="249.918"/>
 <line x1="215.482" y1="291.226" x2="227.289" y2="304.892"/>
 <path d="M227.289,304.892 c10.229-8.837,21.873-15.888,34.443-20.858"/>
 <line x1="261.732" y1="284.033" x2="259.519" y2="278.436"/>
 <line x1="202.197" y1="287.027" x2="210.5" y2="295.745"/>
 <path d="M210.501,295.745 c3.248-3.094,6.644-6.028,10.176-8.792"/>
 <line x1="220.677" y1="286.954" x2="216.967" y2="282.212"/>
 <line x1="209.468" y1="280.537" x2="213.329" y2="285.155"/>
 <path d="M213.329,285.155 c2.394-2.001,4.851-3.924,7.369-5.766"/>
 <line x1="220.699" y1="279.389" x2="217.145" y2="274.53"/>
 <line x1="248.951" y1="276.477" x2="251.544" y2="281.91"/>
 <path d="M251.544,281.91 c5.237-2.5,10.639-4.636,16.17-6.393"/>
 <line x1="267.714" y1="275.517" x2="260.421" y2="252.568"/>
 <line x1="237.418" y1="275.718" x2="240.4" y2="280.948"/>
 <path d="M240.4,280.948 c5.592-3.188,11.409-5.965,17.404-8.307"/>
 <line x1="257.804" y1="272.641" x2="251.232" y2="255.819"/>
 <line x1="225.193" y1="269.033" x2="231.659" y2="279.19"/>
 <path d="M231.658,279.19 c3.784-2.408,7.683-4.631,11.682-6.661"/>
 <line x1="243.34" y1="272.53" x2="240.616" y2="267.162"/>
 <line x1="233.582" y1="264.069" x2="236.479" y2="269.346"/>
 <path d="M236.479,269.346 c2.735-1.501,5.518-2.913,8.344-4.234"/>
 <line x1="244.822" y1="265.111" x2="242.273" y2="259.658"/>
 <line x1="288.113" y1="258.7" x2="292.001" y2="288.548"/>
 <path d="M292.001,288.548 c9.257-1.206,18.631-1.211,27.89-0.014"/>
 <line x1="319.89" y1="288.534" x2="320.662" y2="282.564"/>
 <line x1="279.333" y1="247.881" x2="281.466" y2="259.731"/>
 <path d="M281.466,259.731 c4.414-0.795,8.865-1.374,13.335-1.737"/>
 <line x1="294.801" y1="257.994" x2="294.314" y2="251.994"/>
 <line x1="288.976" y1="246.466" x2="289.657" y2="252.447"/>
 <path d="M289.657,252.447 c3.1-0.353,6.21-0.605,9.326-0.757"/>
 <line x1="298.984" y1="251.69" x2="298.692" y2="245.678"/>
 <line x1="313.017" y1="251.69" x2="311.555" y2="281.754"/>
 <path d="M311.555,281.755 c6.093,0.296,12.152,1.079,18.121,2.342"/>
 <line x1="329.675" y1="284.097" x2="330.921" y2="278.207"/>
 <line x1="308.438" y1="245.52" x2="308.34" y2="251.539"/>
 <path d="M308.34,251.539 c3.119,0.051,6.235,0.202,9.346,0.454"/>
 <line x1="317.686" y1="251.993" x2="318.173" y2="245.993"/>
 <line x1="327.856" y1="247.096" x2="323.486" y2="276.876"/>
 <path d="M323.485,276.876 c4.985,0.732,9.919,1.776,14.773,3.126"/>
 <line x1="338.259" y1="280.002" x2="339.872" y2="274.202"/>
 <line x1="337.449" y1="248.823" x2="332.418" y2="272.371"/>
 <path d="M332.418,272.371 c5.007,1.07,9.943,2.443,14.784,4.111"/>
 <line x1="347.201" y1="276.482" x2="349.163" y2="270.792"/>
 <line x1="346.91" y1="251.167" x2="342.001" y2="268.547"/>
 <path d="M342.001,268.547 c4.817,1.361,9.553,2.993,14.187,4.89"/>
 <line x1="356.187" y1="273.437" x2="358.468" y2="267.866"/>
 <line x1="356.199" y1="254.119" x2="352.184" y2="265.47"/>
 <path d="M352.184,265.469 c4.229,1.496,8.382,3.197,12.445,5.096"/>
 <line x1="364.629" y1="270.565" x2="367.178" y2="265.111"/>
 <line x1="365.278" y1="257.666" x2="362.907" y2="263.199"/>
 <path d="M362.907,263.199 c2.868,1.229,5.695,2.55,8.477,3.962"/>
 <line x1="371.384" y1="267.161" x2="374.108" y2="261.793"/>
 <line x1="383.574" y1="274.112" x2="341.555" y2="340.135"/>
 <path d="M341.555,340.135 c3.018,1.92,5.874,4.082,8.542,6.463"/>
 <line x1="350.097" y1="346.598" x2="354.105" y2="342.106"/>
 <line x1="382.652" y1="266.483" x2="379.587" y2="271.664"/>
 <path d="M379.587,271.664 c2.685,1.589,5.317,3.264,7.894,5.024"/>
 <line x1="387.48" y1="276.688" x2="390.875" y2="271.717"/>
 <line x1="398.742" y1="277.471" x2="350.517" y2="339.106"/>
 <path d="M350.517,339.106 c2.458,1.923,4.788,4.003,6.976,6.227"/>
 <line x1="357.492" y1="345.333" x2="361.783" y2="341.111"/>
 <line x1="406.221" y1="283.723" x2="358.114" y2="337.616"/>
 <path d="M358.114,337.616 c2.521,2.251,4.896,4.662,7.104,7.22"/>
 <line x1="365.219" y1="344.836" x2="369.773" y2="340.9"/>
 <line x1="413.277" y1="290.446" x2="366.076" y2="336.89"/>
 <path d="M366.075,336.89 c2.553,2.594,4.935,5.35,7.13,8.252"/>
 <line x1="373.205" y1="345.142" x2="378.005" y2="341.509"/>
 <line x1="419.886" y1="297.611" x2="374.331" y2="336.967"/>
 <path d="M374.331,336.967 c2.548,2.949,4.902,6.06,7.047,9.313"/>
 <line x1="381.379" y1="346.279" x2="386.403" y2="342.964"/>
 <line x1="426.015" y1="305.189" x2="382.811" y2="337.881"/>
 <path d="M382.81,337.881 c2.506,3.312,4.795,6.782,6.854,10.389"/>
 <line x1="389.662" y1="348.27" x2="394.892" y2="345.287"/>
 <line x1="431.642" y1="313.148" x2="391.437" y2="339.661"/>
 <path d="M391.437,339.661 c2.424,3.676,4.608,7.505,6.54,11.463"/>
 <line x1="397.976" y1="351.124" x2="403.386" y2="348.484"/>
 <line x1="436.741" y1="321.455" x2="400.134" y2="342.328"/>
 <path d="M400.134,342.327 c2.3,4.035,4.339,8.213,6.103,12.509"/>
 <line x1="406.237" y1="354.836" x2="411.806" y2="352.55"/>
 <line x1="441.292" y1="330.074" x2="408.822" y2="345.896"/>
 <path d="M408.822,345.896 c2.131,4.372,3.979,8.876,5.537,13.484"/>
 <line x1="414.359" y1="359.38" x2="420.062" y2="357.453"/>
 <line x1="445.276" y1="338.97" x2="417.421" y2="350.375"/>
 <path d="M417.421,350.375 c1.909,4.663,3.523,9.441,4.835,14.306"/>
 <line x1="422.255" y1="364.681" x2="428.068" y2="363.115"/>
 <line x1="448.676" y1="348.104" x2="425.848" y2="355.768"/>
 <path d="M425.848,355.768 c1.629,4.854,2.962,9.801,3.991,14.816"/>
 <line x1="429.839" y1="370.584" x2="435.735" y2="369.374"/>
 <line x1="451.477" y1="357.44" x2="434.02" y2="362.067"/>
 <path d="M434.02,362.067 c1.283,4.839,2.29,9.746,3.017,14.699"/>
 <line x1="437.036" y1="376.766" x2="442.992" y2="375.892"/>
 <line x1="453.667" y1="366.938" x2="441.854" y2="369.263"/>
 <path d="M441.854,369.263 c0.866,4.401,1.519,8.841,1.953,13.305"/>
 <line x1="443.807" y1="382.568" x2="449.799" y2="381.984"/>
 <line x1="455.239" y1="376.557" x2="449.27" y2="377.335"/>
 <path d="M449.27,377.335 c0.402,3.094,0.706,6.2,0.908,9.313"/>
 <line x1="450.177" y1="386.648" x2="456.184" y2="386.258"/>

 <text transform="matrix(1 0 0 1 460 399)">Spirochaetes</text>
 <text transform="matrix(0.9979 0.0647 -0.0647 0.9979 459.4824 408.9629)">Chlamydias</text>
 <text transform="matrix(0.9916 0.1292 -0.1292 0.9916 458.3223 418.8691)">Hyperthermophilic bacteria</text>
 <text transform="matrix(0.9812 0.1931 -0.1931 0.9812 456.5225 428.6816)">Cyanobacteria</text>
 <text transform="matrix(0.9666 0.2562 -0.2562 0.9666 454.0908 438.3564)">Low-GC Gram-positives</text>
 <text transform="matrix(0.948 0.3182 -0.3182 0.948 451.04 447.8545)">High-GC Gram-positives</text>
 <text transform="matrix(0.9254 0.3789 -0.3789 0.9254 447.377 457.1328)">Deinococcus/Thermus</text>
 <text transform="matrix(0.899 0.438 -0.438 0.899 443.124 466.1553)">Proteobacteria</text>
 <text transform="matrix(0.8687 0.4953 -0.4953 0.8687 438.2969 474.8857)">Crenarchaeota</text>
 <text transform="matrix(0.8348 0.5505 -0.5505 0.8348 432.9121 483.2842)">Euryarchaeota</text>
 <text transform="matrix(0.7974 0.6034 -0.6034 0.7974 426.9961 491.3164)">Haptophytes</text>
 <text transform="matrix(0.7567 0.6537 -0.6537 0.7567 420.5723 498.9473)">Brown algae</text>
 <text transform="matrix(0.7128 0.7014 -0.7014 0.7128 413.6689 506.1475)">Diatoms</text>
 <text transform="matrix(0.6659 0.746 -0.746 0.6659 406.3125 512.8848)">Oomycetes</text>
 <text transform="matrix(0.6162 0.7876 -0.7876 0.6162 398.5371 519.1328)">Dinoflagellates</text>
 <text transform="matrix(0.564 0.8258 -0.8258 0.564 390.373 524.8652)">Apicomplexans</text>
 <text transform="matrix(0.5093 0.8606 -0.8606 0.5093 381.8535 530.0566)">Ciliates</text>
 <text transform="matrix(0.4525 0.8917 -0.8917 0.4525 373.0166 534.6855)">Eudicots</text>
 <text transform="matrix(0.3939 0.9192 -0.9192 0.3939 363.8994 538.7324)">Monocots</text>
 <text transform="matrix(0.3336 0.9427 -0.9427 0.3336 354.5391 542.1807)">Magnoliids</text>
 <text transform="matrix(0.2718 0.9623 -0.9623 0.2718 344.9736 545.0166)">Star anise</text>
 <text transform="matrix(0.209 0.9779 -0.9779 0.209 335.2471 547.2266)">Water lilies</text>
 <text transform="matrix(0.1452 0.9894 -0.9894 0.1452 325.3965 548.8047)">Amborella</text>
 <text transform="matrix(0.0809 0.9967 -0.9967 0.0809 315.4658 549.7383)">Conifers</text>
 <text transform="matrix(0.0162 1 -1 0.0162 305.4932 550.0283)">Gnetophytes</text>
 <text transform="matrix(0.0486 -0.9988 0.9988 0.0486 300.2061 576.9326)">Ginkgo</text>
 <text transform="matrix(0.1131 -0.9936 0.9936 0.1131 288.2812 578.166)">Cycads</text>
 <text transform="matrix(0.1772 -0.9842 0.9842 0.1772 277.7676 569.7461)">Ferns</text>
 <text transform="matrix(0.2405 -0.9706 0.9706 0.2405 262.4902 584.0547)">Horsetails</text>
 <text transform="matrix(0.3028 -0.953 0.953 0.3028 247.9863 588.4688)">Whisk ferns</text>
 <text transform="matrix(0.3639 -0.9314 0.9314 0.3639 214.9072 637.4023)">Club mosses and relatives</text>
 <text transform="matrix(0.4234 -0.9059 0.9059 0.4234 226.5723 573.0205)">Hornworts</text>
 <text transform="matrix(0.4812 -0.8766 0.8766 0.4812 219.6104 559.6182)">Mosses</text>
 <text transform="matrix(0.5369 -0.8436 0.8436 0.5369 204.3682 561.2754)">Liverworts</text>
 <text transform="matrix(0.5904 -0.8071 0.8071 0.5904 196.835 550.3145)">Charales</text>
 <text transform="matrix(0.6414 -0.7672 0.7672 0.6414 170.3984 562.8711)">Coleochaetales</text>
 <text transform="matrix(0.6897 -0.7241 0.7241 0.6897 166.0898 547.2285)">Chlorophytes</text>
 <text transform="matrix(0.7351 -0.6779 0.6779 0.7351 165.416 529.7188)">Red Algae</text>
 <text transform="matrix(0.7775 -0.6289 0.6289 0.7775 146.1699 529.1445)">Glaucophytes</text>
 <text transform="matrix(0.8166 -0.5773 0.5773 0.8166 137.0703 519.0957)">Kinetoplastids</text>
 <text transform="matrix(0.8522 -0.5232 0.5232 0.8522 143.9443 499.0098)">Euglenids</text>
 <text transform="matrix(0.8843 -0.4669 0.4669 0.8843 111.9717 501.8438)">Heteroloboseans</text>
 <text transform="matrix(0.9127 -0.4087 0.4087 0.9127 120.1299 482.5234)">Parabasalids</text>
 <text transform="matrix(0.9372 -0.3488 0.3488 0.9372 114.9199 470.3105)">Diplomonads</text>
 <text transform="matrix(0.9578 -0.2874 0.2874 0.9578 102.8477 460.0859)">Foraminiferans</text>
 <text transform="matrix(0.9744 -0.2248 0.2248 0.9744 110.8174 444.1035)">Cercozoans</text>
 <text transform="matrix(0.9869 -0.1612 0.1612 0.9869 106.1396 431.6904)">Radiolarians</text>
 <text transform="matrix(0.9953 -0.097 0.097 0.9953 96.2861 419.4551)">Amoebozoans</text>
 <text transform="matrix(0.9995 -0.0324 0.0324 0.9995 110.1997 405.3457)">Club Fungi</text>
 <text transform="matrix(0.9995 0.0324 -0.0324 0.9995 113.0039 392.748)">Sac Fungi</text>
 <text transform="matrix(0.9953 0.097 -0.097 0.9953 36.9819 372.793)">Arbuscular Mycorrhizal Fungi</text>
 <text transform="matrix(0.9869 0.1612 -0.1612 0.9869 80.499 362.2012)">"Zygospore Fungi"</text>
 <text transform="matrix(0.9744 0.2248 -0.2248 0.9744 117.2637 355.542)">"Chytrids"</text>
 <text transform="matrix(0.9578 0.2874 -0.2874 0.9578 106.8696 339.3867)">Microsporidia</text>
 <text transform="matrix(0.9372 0.3488 -0.3488 0.9372 94.0825 320.3389)">Choanoflagellates</text>
 <text transform="matrix(0.9127 0.4087 -0.4087 0.9127 111.2891 312.0918)">Glass sponges</text>
 <text transform="matrix(0.8843 0.4669 -0.4669 0.8843 118.0127 300.1309)">Demosponges</text>
 <text transform="matrix(0.8522 0.5232 -0.5232 0.8522 104.1602 275.6064)">Calcareous sponges</text>
 <text transform="matrix(0.8166 0.5773 -0.5773 0.8166 141.772 283.5762)">Placozoans</text>
 <text transform="matrix(0.7775 0.6289 -0.6289 0.7775 145.5068 270.0371)">Ctenophores</text>
 <text transform="matrix(0.7351 0.6779 -0.6779 0.7351 159.8779 265.335)">Cnidarians</text>
 <text transform="matrix(0.6897 0.7241 -0.7241 0.6897 169.332 256.874)">Bryozoans</text>
 <text transform="matrix(0.6414 0.7672 -0.7672 0.6414 179.2651 249.0879)">Flatworms</text>
 <text transform="matrix(0.5904 0.8071 -0.8071 0.5904 194.9448 249.2637)">Rotifers</text>
 <text transform="matrix(0.5369 0.8436 -0.8436 0.5369 190.7168 220.4482)">Ribbon worms</text>
 <text transform="matrix(0.4812 0.8766 -0.8766 0.4812 205.6895 219.4912)">Brachiopods</text>
 <text transform="matrix(0.4234 0.9059 -0.9059 0.4234 221.5596 222.4268)">Phoronids</text>
 <text transform="matrix(0.3639 0.9314 -0.9314 0.3639 234.792 221.9814)">Annelids</text>
 <text transform="matrix(0.3029 0.953 -0.953 0.3029 245.9033 216.7842)">Mollusks</text>
 <text transform="matrix(0.2405 0.9706 -0.9706 0.2405 253.5391 196.7705)">Arrow worms</text>
 <text transform="matrix(0.1772 0.9842 -0.9842 0.1772 269.0264 207.5703)">Priapulids</text>
 <text transform="matrix(0.1131 0.9936 -0.9936 0.1131 280.1699 195.6367)">Kinorhynchs</text>
 <text transform="matrix(0.0486 0.9988 -0.9988 0.0486 293.3398 197.3809)">Loriciferans</text>
 <text transform="matrix(0.0162 -1 1 0.0162 311.4941 242.0679)">Horsehair worms</text>
 <text transform="matrix(0.0809 -0.9967 0.9967 0.0809 321.4463 242.7476)">Nematodes</text>
 <text transform="matrix(0.1452 -0.9894 0.9894 0.1452 331.333 244.0684)">Tardigrades</text>
 <text transform="matrix(0.209 -0.9779 0.9779 0.209 341.1162 246.0269)">Onychophorans</text>
 <text transform="matrix(0.2718 -0.9623 0.9623 0.2718 350.75 248.6133)">Chelicerates</text>
 <text transform="matrix(0.3336 -0.9427 0.9427 0.3336 360.1953 251.8208)">Myriapods</text>
 <text transform="matrix(0.3939 -0.9192 0.9192 0.3939 369.4131 255.6309)">Crustaceans</text>
 <text transform="matrix(0.4525 -0.8917 0.8917 0.4525 378.3672 260.0298)">Hexapods</text>
 <text transform="matrix(0.5093 -0.8606 0.8606 0.5093 387.0176 265.0005)">Echinoderms</text>
 <text transform="matrix(0.564 -0.8258 0.8258 0.564 395.3271 270.5176)">Hemichordates</text>
 <text transform="matrix(0.6162 -0.7876 0.7876 0.6162 403.2617 276.563)">Cephalochordates</text>
 <text transform="matrix(0.6659 -0.746 0.746 0.6659 410.79 283.1094)">Urochordates</text>
 <text transform="matrix(0.7128 -0.7014 0.7014 0.7128 417.876 290.1294)">Hagfishes</text>
 <text transform="matrix(0.7567 -0.6537 0.6537 0.7567 424.4951 297.5928)">Lampreys</text>
 <text transform="matrix(0.7974 -0.6034 0.6034 0.7974 430.6172 305.4692)">Chondrichthyans</text>
 <text transform="matrix(0.8348 -0.5505 0.5505 0.8348 436.2148 313.7261)">Ray-finned fishes</text>
 <text transform="matrix(0.8687 -0.4953 0.4953 0.8687 441.2686 322.3276)">Lobe-finned fishes</text>
 <text transform="matrix(0.899 -0.438 0.438 0.899 445.7529 331.2373)">Lungfishes</text>
 <text transform="matrix(0.9254 -0.3789 0.3789 0.9254 449.6514 340.4199)">Amphibians</text>
 <text transform="matrix(0.948 -0.3182 0.3182 0.948 452.9482 349.834)">Mammals</text>
 <text transform="matrix(0.9666 -0.2562 0.2562 0.9666 455.6289 359.4434)">Turtles</text>
 <text transform="matrix(0.9812 -0.1931 0.1931 0.9812 457.6816 369.2051)">Lepidosaurs</text>
 <text transform="matrix(0.9916 -0.1292 0.1292 0.9916 459.0967 379.0801)">Crocodilians</text>
 <text transform="matrix(0.9979 -0.0647 0.0647 0.9979 459.8711 389.0254)">Birds</text>
</g>
</svg>
