<svg xmlns="http://www.w3.org/2000/svg" viewBox="33 170 572 640">
 <g fill="none" stroke="#000" font-family="ArialMT" font-size="9">
  <path d="m310.66 399.81l-4.66-3.81m114.08 8.21l-108.08-7.78m0 0c-.184 2.536-1.939 4.684-4.389 5.367m.01 0l1.61 5.8m147.27-11.6h-36.12m0 0c0 5.482-.394 10.957-1.179 16.382m0 0l5.96.86m31.02-7.5l-30.03-1.95m0 0c-.41 6.326-1.32 12.61-2.72 18.794m0 .01l5.87 1.33m25.94-8.48l-23.88-3.11m0 0c-1.014 7.788-2.753 15.464-5.19 22.929m0 0l5.72 1.87m14.89-8.65l-11.73-2.71m0 0c-1.769 7.668-4.217 15.163-7.316 22.396m0-.01l5.54 2.38m20.4-25.48l-5.91-1.16m0 0c-.603 3.062-1.304 6.103-2.104 9.118m0 0l5.82 1.54m-10.07 11.83l-5.64-2.1m0 0c-1.564 4.204-3.332 8.329-5.297 12.361m0 0l10.82 5.28m7.39-18.03l-5.71-1.92m0 0c-.993 2.958-2.081 5.882-3.265 8.771m0 0l5.58 2.28m-16.15 18.56l-112.87-69.29m0 0c-3.298 5.372-10.182 7.291-15.784 4.399m0 0l-2.76 5.35m139.02 58.49l-5.23-2.98m0 0c-1.545 2.71-3.178 5.37-4.896 7.974m.01.01l5.02 3.31m-35.07 13.78l-78.22-83.45m0 0c-7.276 6.821-18.706 6.451-25.526-.826-3.719-3.968-5.452-9.399-4.718-14.788m0 0l-5.96-.81m143.88 94.06l-14.41-10.9m0 0c-9.081 12.001-20.14 22.365-32.704 30.65m0 0l3.31 5.03m20.89-16.89l-4.22-4.3m13.32 3.54l-4.42-4.08m0 0c-3.041 3.297-6.239 6.445-9.586 9.432m0 .01l8.02 8.98m13.67-13.89l-4.56-3.94m0 0c-2.04 2.361-4.155 4.655-6.343 6.879m0 0l4.29 4.23m-21.98 11.05l-3.55-4.86m0 0c-3.62 2.648-7.367 5.119-11.227 7.403m0 .01l6.13 10.36m16.09-10.99l-3.71-4.74m0 0c-2.457 1.923-4.977 3.765-7.553 5.523m0 0l3.4 4.97m-124.7-87.54l26.55-24.49m-28.22 31.37l4.15-4.37m0 0c-1.704-1.621-3.3-3.352-4.779-5.181m0 0l-74.89 60.58m74.6-43.79l3.85-4.63m0 0c-2.016-1.682-3.921-3.493-5.701-5.423m0 0l-66.38 61.21m68.14-43.61l3.54-4.87m0 0c-2.357-1.716-4.599-3.585-6.71-5.596m0 .01l-58.13 61.02m62.11-42.74l3.21-5.09m0 0c-2.743-1.727-5.366-3.635-7.852-5.714m-.01-.01l-50.19 60.04m56.71-41.18l2.85-5.3m0 0c-3.209-1.72-6.294-3.662-9.233-5.812m0-.01l-42.66 58.31m52.26-38.92l2.44-5.5m0 0c-3.841-1.703-7.549-3.69-11.093-5.946m0 0l-35.56 55.87m49.36-35.93l1.97-5.69m0 0c-4.822-1.666-9.495-3.737-13.968-6.192m0 0l-28.97 52.77m49.29-32.24l1.36-5.86m0 0c-6.551-1.521-12.924-3.723-19.016-6.569m.01 0l-22.95 49.08m54.69-28.36l.50-6m0 0c-9.84-.824-19.509-3.067-28.707-6.66m.01 0l-17.53 44.86m63.44-26.13l-.45-6m0 0c-11.507.875-23.079-.094-34.281-2.869m0 0l-8.69 35.06m59.67-22.45l-1.24-5.89m0 0c-9.905 2.096-20.046 2.866-30.155 2.293m0 .01l-1.02 18.03m41.37-10.43l-1.61-5.8m0 0c-4.854 1.35-9.788 2.394-14.772 3.126m-.01-.01l4.38 29.78m21.3-23.69l-1.96-5.69m0 0c-4.84 1.669-9.776 3.042-14.784 4.111m0 0l5.03 23.55m21.02-19.05l-2.28-5.57m0 0c-4.632 1.897-9.368 3.529-14.186 4.891m0 0l4.91 17.38m20.27-13.94l-2.55-5.45m0 0c-4.063 1.899-8.218 3.601-12.445 5.096m0-.01l4.02 11.35m17.91-7.67l-2.73-5.37m0 0c-2.782 1.412-5.608 2.732-8.477 3.962m.01 0l2.37 5.53m-59.28.13v-6.02m0 0c-5.006 0-10.007-.284-14.981-.851m0 0l-2.04 17.94m24.04-5.22l-.30-6.01m0 0c-4.479.218-8.968.218-13.448 0m.01 0l-.59 12.02m19.48-.31l-.48-6m0 0c-3.11.252-6.227.404-9.346.454m0 0l.10 6.02m-29.11-2.36l1.07-5.93m0 0c-6.143-1.105-12.207-2.608-18.155-4.499m0 .01l-1.82 5.73m9.38 2.65l1.45-5.84m-83.83-81.26l102.41-50.94m-102.99 62.48l5.18-3.07m0 0c-3.279-5.54-6.149-11.311-8.588-17.268m.01.01l-11.14 4.56m13.08 24.79l5.03-3.32m0 0c-2.469-3.744-4.755-7.606-6.849-11.573m0 0l-10.65 5.62m10.2 16.61l4.91-3.48m0 0c-1.801-2.549-3.519-5.153-5.151-7.812m0 0l-5.13 3.15m-9.1-17.23l5.5-2.46m0 0c-1.275-2.847-2.458-5.734-3.546-8.658m0 0l-5.64 2.1m5.65-23.56l117.74-25.16m-122 33.25l5.82-1.54m0 0c-1.149-4.336-2.087-8.724-2.81-13.15m0-.01l-11.88 1.94m4.38 18.99l5.76-1.73m.01 0c-.897-2.988-1.696-6.005-2.397-9.045m0 0l-5.87 1.35m-3.14-19.23l125.82-12.26m0 0c-.364-3.732.149-7.497 1.497-10.996m0 0l-5.62-2.16m-95.85-14.09l94.43 18.98m0 0c.672-3.342 1.907-6.546 3.652-9.475m0-.01l-5.17-3.08m-100.68 4.57l5.99.64m0 0c.825-7.81 2.376-15.526 4.633-23.048m0 0l-23.06-6.92m5.85 36.53l6.02.29m0 0c.243-5 .77-9.982 1.576-14.922m-.01 0l-17.82-2.92m4.05 24.27h6.02m0 0c0-4.485.218-8.968.653-13.432m0 0l-11.98-1.17m-.63 19.47l6.02-.19m0 0c-.101-3.118-.101-6.239 0-9.357m0 0l-6.02-.19m3.77-28.96l23.47 5.41m-17.87-24.07l107.2 39.89m0 0c1.525-4.098 3.781-7.885 6.659-11.176m0 .01l-4.53-3.97m-89.66-38.88l84.44 46.34m0 0c2.937-5.351 7.001-9.999 11.912-13.625m0 0l-3.57-4.84m-101.28-24.55l5.41 2.64m0 0c1.965-4.032 4.124-7.966 6.471-11.789m0 0l-10.26-6.3m-9.1 17.23l5.5 2.46m0 0c1.275-2.847 2.642-5.653 4.099-8.412m0 0l-5.33-2.81m10.2-16.61l83.56 59.08m0 0c5.972-8.448 14.506-14.748 24.337-17.968m0 0l-1.87-5.72m-92.47-42.96l68.33 59.03m0 0c13.116-15.182 33.548-21.873 53.103-17.391m0 0l1.35-5.87m-130.46-35.97l4.68 3.79m0 0c1.962-2.426 4.002-4.787 6.117-7.081m0 0l-4.43-4.08m90.6 1.66l8.25 41.33m0 0c16.877-3.37 34.389.644 48.113 11.028m0-.01l3.64-4.8m-83.84-52.82l4.62 11.12m0 0c12.427-5.162 25.751-7.823 39.208-7.83m0 0l-.01-6.02m-62.31 5.37l3.12 5.15m0 0c9.855-5.968 20.555-10.413 31.738-13.184m0 0l-8.69-35.06m-54.32 41.31l11.81 13.66m0 0c10.229-8.837 21.873-15.888 34.443-20.858m0 0l-2.21-5.59m-57.32 8.59l8.3 8.71m0 0c3.248-3.094 6.644-6.028 10.176-8.792m0 0l-3.71-4.74m-7.5-1.67l3.86 4.62m0 0c2.394-2.001 4.851-3.924 7.369-5.766m0 0l-3.56-4.86m31.81 1.95l2.59 5.43m0 0c5.237-2.5 10.639-4.636 16.17-6.393m0 0l-7.29-22.95m-23 23.15l2.98 5.23m0 0c5.592-3.188 11.409-5.965 17.404-8.307m0 0l-6.57-16.82m-26.04 13.21l6.47 10.16m0 0c3.784-2.408 7.683-4.631 11.682-6.661m0 0l-2.72-5.37m-7.04-3.09l2.9 5.28m0 0c2.735-1.501 5.518-2.913 8.344-4.234m0-.01l-2.55-5.45m45.84-.96l3.89 29.85m0 0c9.257-1.206 18.631-1.211 27.89-.014m0-.01l.77-5.97m-41.33-34.68l2.14 11.85m0 0c4.414-.795 8.865-1.374 13.335-1.737m0 0l-.49-6m-5.33-5.52l.68 5.98m0 0c3.1-.353 6.21-.605 9.326-.757m-.01 0l-.29-6.01m14.33 6.01l-1.46 30.06m0 .01c6.093.296 12.152 1.079 18.121 2.342m0 0l1.24-5.89m-22.48-32.69l-.10 6.02m0 0c3.119.051 6.235.202 9.346.454m0 0l.48-6m9.69 1.11l-4.37 29.78m-.01 0c4.985.732 9.919 1.776 14.773 3.126m.01-.01l1.61-5.8m-2.42-25.38l-5.03 23.55m0 0c5.007 1.07 9.943 2.443 14.784 4.111m0 0l1.96-5.69m-2.25-19.62l-4.91 17.38m0 0c4.817 1.361 9.553 2.993 14.187 4.89m0 0l2.28-5.57m-2.27-13.75l-4.02 11.35m0 0c4.229 1.496 8.382 3.197 12.445 5.096m.01-.01l2.55-5.45m-1.9-7.44l-2.37 5.53m0 0c2.868 1.229 5.695 2.55 8.477 3.962m-.01 0l2.73-5.37m9.46 12.32l-42.01 66.03m0 0c3.018 1.92 5.874 4.082 8.542 6.463m0 0l4-4.49m28.55-75.63l-3.06 5.18m0 0c2.685 1.589 5.317 3.264 7.894 5.024m0 .01l3.4-4.97m7.86 5.75l-48.22 61.64m0 0c2.458 1.923 4.788 4.003 6.976 6.227m-.01-.01l4.29-4.22m44.44-57.39l-48.11 53.9m0 0c2.521 2.251 4.896 4.662 7.104 7.22m.01 0l4.55-3.94m43.51-50.45l-47.2 46.44m0 0c2.553 2.594 4.935 5.35 7.13 8.252m-.01 0l4.8-3.63m41.89-43.9l-45.56 39.36m0 0c2.548 2.949 4.902 6.06 7.047 9.313m0 0l5.02-3.32m39.62-37.77l-43.21 32.69m0 0c2.506 3.312 4.795 6.782 6.854 10.389m0 0l5.23-2.98m36.75-32.14l-40.2 26.51m0 0c2.424 3.676 4.608 7.505 6.54 11.463m0 0l5.41-2.64m33.35-27.02l-36.61 20.87m0 0c2.3 4.035 4.339 8.213 6.103 12.509m.01 0l5.57-2.29m29.48-22.48l-32.47 15.83m0 0c2.131 4.372 3.979 8.876 5.537 13.484m0 0l5.7-1.93m25.22-18.48l-27.86 11.41m0 0c1.909 4.663 3.523 9.441 4.835 14.306m0-.01l5.81-1.56m20.61-15.02l-22.83 7.67m0 0c1.629 4.854 2.962 9.801 3.991 14.816m0-.01l5.9-1.21m15.74-11.93l-17.46 4.63m0 0c1.283 4.839 2.29 9.746 3.017 14.699m0 0l5.95-.88m10.68-8.95l-11.82 2.32m0 0c.866 4.401 1.519 8.841 1.953 13.305m.01.01l5.99-.59m5.44-5.42l-5.97.78m0 0c.402 3.094.706 6.2.908 9.313m0 0l6-.39"/>
  <text transform="matrix(1 0 0 1 460 399)">Spirochaetes</text>
  <text transform="matrix(.9979 .0647 -.0647 .9979 459.48 408.96)">Chlamydias</text>
  <text transform="matrix(.9916 .1292 -.1292 .9916 458.32 418.87)">Hyperthermophilic bacteria</text>
  <text transform="matrix(.9812 .1931 -.1931 .9812 456.52 428.68)">Cyanobacteria</text>
  <text transform="matrix(.9666 .2562 -.2562 .9666 454.09 438.36)">Low-GC Gram-positives</text>
  <text transform="matrix(.948 .3182 -.3182 .948 451.04 447.85)">High-GC Gram-positives</text>
  <text transform="matrix(.9254 .3789 -.3789 .9254 447.38 457.13)">Deinococcus/Thermus</text>
  <text transform="matrix(.899 .438 -.438 .899 443.12 466.16)">Proteobacteria</text>
  <text transform="matrix(.8687 .4953 -.4953 .8687 438.3 474.89)">Crenarchaeota</text>
  <text transform="matrix(.8348 .5505 -.5505 .8348 432.91 483.28)">Euryarchaeota</text>
  <text transform="matrix(.7974 .6034 -.6034 .7974 427 491.32)">Haptophytes</text>
  <text transform="matrix(.7567 .6537 -.6537 .7567 420.57 498.95)">Brown algae</text>
  <text transform="matrix(.7128 .7014 -.7014 .7128 413.67 506.15)">Diatoms</text>
  <text transform="matrix(.6659 .746 -.746 .6659 406.31 512.88)">Oomycetes</text>
  <text transform="matrix(.6162 .7876 -.7876 .6162 398.54 519.13)">Dinoflagellates</text>
  <text transform="matrix(.564 .8258 -.8258 .564 390.37 524.87)">Apicomplexans</text>
  <text transform="matrix(.5093 .8606 -.8606 .5093 381.85 530.06)">Ciliates</text>
  <text transform="matrix(.4525 .8917 -.8917 .4525 373.02 534.69)">Eudicots</text>
  <text transform="matrix(.3939 .9192 -.9192 .3939 363.9 538.73)">Monocots</text>
  <text transform="matrix(.3336 .9427 -.9427 .3336 354.54 542.18)">Magnoliids</text>
  <text transform="matrix(.2718 .9623 -.9623 .2718 344.97 545.02)">Star anise</text>
  <text transform="matrix(.209 .9779 -.9779 .209 335.25 547.23)">Water lilies</text>
  <text transform="matrix(.1452 .9894 -.9894 .1452 325.4 548.8)">Amborella</text>
  <text transform="matrix(.0809 .9967 -.9967 .0809 315.47 549.74)">Conifers</text>
  <text transform="matrix(.0162 1 -1 .0162 305.49 550.03)">Gnetophytes</text>
  <text transform="matrix(.0486 -.9988 .9988 .0486 300.21 576.93)">Ginkgo</text>
  <text transform="matrix(.1131 -.9936 .9936 .1131 288.28 578.17)">Cycads</text>
  <text transform="matrix(.1772 -.9842 .9842 .1772 277.77 569.75)">Ferns</text>
  <text transform="matrix(.2405 -.9706 .9706 .2405 262.49 584.05)">Horsetails</text>
  <text transform="matrix(.3028 -.953 .953 .3028 247.99 588.47)">Whisk ferns</text>
  <text transform="matrix(.3639 -.9314 .9314 .3639 214.91 637.4)">Club mosses and relatives</text>
  <text transform="matrix(.4234 -.9059 .9059 .4234 226.57 573.02)">Hornworts</text>
  <text transform="matrix(.4812 -.8766 .8766 .4812 219.61 559.62)">Mosses</text>
  <text transform="matrix(.5369 -.8436 .8436 .5369 204.37 561.28)">Liverworts</text>
  <text transform="matrix(.5904 -.8071 .8071 .5904 196.84 550.31)">Charales</text>
  <text transform="matrix(.6414 -.7672 .7672 .6414 170.4 562.87)">Coleochaetales</text>
  <text transform="matrix(.6897 -.7241 .7241 .6897 166.09 547.23)">Chlorophytes</text>
  <text transform="matrix(.7351 -.6779 .6779 .7351 165.42 529.72)">Red Algae</text>
  <text transform="matrix(.7775 -.6289 .6289 .7775 146.17 529.14)">Glaucophytes</text>
  <text transform="matrix(.8166 -.5773 .5773 .8166 137.07 519.1)">Kinetoplastids</text>
  <text transform="matrix(.8522 -.5232 .5232 .8522 143.94 499.01)">Euglenids</text>
  <text transform="matrix(.8843 -.4669 .4669 .8843 111.97 501.84)">Heteroloboseans</text>
  <text transform="matrix(.9127 -.4087 .4087 .9127 120.13 482.52)">Parabasalids</text>
  <text transform="matrix(.9372 -.3488 .3488 .9372 114.92 470.31)">Diplomonads</text>
  <text transform="matrix(.9578 -.2874 .2874 .9578 102.85 460.09)">Foraminiferans</text>
  <text transform="matrix(.9744 -.2248 .2248 .9744 110.82 444.1)">Cercozoans</text>
  <text transform="matrix(.9869 -.1612 .1612 .9869 106.14 431.69)">Radiolarians</text>
  <text transform="matrix(.9953 -.097 .097 .9953 96.286 419.46)">Amoebozoans</text>
  <text transform="matrix(.9995 -.0324 .0324 .9995 110.2 405.35)">Club Fungi</text>
  <text transform="matrix(.9995 .0324 -.0324 .9995 113 392.75)">Sac Fungi</text>
  <text transform="matrix(.9953 .097 -.097 .9953 36.982 372.79)">Arbuscular Mycorrhizal Fungi</text>
  <text transform="matrix(.9869 .1612 -.1612 .9869 80.499 362.2)">&quot;Zygospore Fungi&quot;</text>
  <text transform="matrix(.9744 .2248 -.2248 .9744 117.26 355.54)">&quot;Chytrids&quot;</text>
  <text transform="matrix(.9578 .2874 -.2874 .9578 106.87 339.39)">Microsporidia</text>
  <text transform="matrix(.9372 .3488 -.3488 .9372 94.082 320.34)">Choanoflagellates</text>
  <text transform="matrix(.9127 .4087 -.4087 .9127 111.29 312.09)">Glass sponges</text>
  <text transform="matrix(.8843 .4669 -.4669 .8843 118.01 300.13)">Demosponges</text>
  <text transform="matrix(.8522 .5232 -.5232 .8522 104.16 275.61)">Calcareous sponges</text>
  <text transform="matrix(.8166 .5773 -.5773 .8166 141.77 283.58)">Placozoans</text>
  <text transform="matrix(.7775 .6289 -.6289 .7775 145.51 270.04)">Ctenophores</text>
  <text transform="matrix(.7351 .6779 -.6779 .7351 159.88 265.34)">Cnidarians</text>
  <text transform="matrix(.6897 .7241 -.7241 .6897 169.33 256.87)">Bryozoans</text>
  <text transform="matrix(.6414 .7672 -.7672 .6414 179.27 249.09)">Flatworms</text>
  <text transform="matrix(.5904 .8071 -.8071 .5904 194.94 249.26)">Rotifers</text>
  <text transform="matrix(.5369 .8436 -.8436 .5369 190.72 220.45)">Ribbon worms</text>
  <text transform="matrix(.4812 .8766 -.8766 .4812 205.69 219.49)">Brachiopods</text>
  <text transform="matrix(.4234 .9059 -.9059 .4234 221.56 222.43)">Phoronids</text>
  <text transform="matrix(.3639 .9314 -.9314 .3639 234.79 221.98)">Annelids</text>
  <text transform="matrix(.3029 .953 -.953 .3029 245.9 216.78)">Mollusks</text>
  <text transform="matrix(.2405 .9706 -.9706 .2405 253.54 196.77)">Arrow worms</text>
  <text transform="matrix(.1772 .9842 -.9842 .1772 269.03 207.57)">Priapulids</text>
  <text transform="matrix(.1131 .9936 -.9936 .1131 280.17 195.64)">Kinorhynchs</text>
  <text transform="matrix(.0486 .9988 -.9988 .0486 293.34 197.38)">Loriciferans</text>
  <text transform="matrix(.0162 -1 1 .0162 311.49 242.07)">Horsehair worms</text>
  <text transform="matrix(.0809 -.9967 .9967 .0809 321.45 242.75)">Nematodes</text>
  <text transform="matrix(.1452 -.9894 .9894 .1452 331.33 244.07)">Tardigrades</text>
  <text transform="matrix(.209 -.9779 .9779 .209 341.12 246.03)">Onychophorans</text>
  <text transform="matrix(.2718 -.9623 .9623 .2718 350.75 248.61)">Chelicerates</text>
  <text transform="matrix(.3336 -.9427 .9427 .3336 360.2 251.82)">Myriapods</text>
  <text transform="matrix(.3939 -.9192 .9192 .3939 369.41 255.63)">Crustaceans</text>
  <text transform="matrix(.4525 -.8917 .8917 .4525 378.37 260.03)">Hexapods</text>
  <text transform="matrix(.5093 -.8606 .8606 .5093 387.02 265)">Echinoderms</text>
  <text transform="matrix(.564 -.8258 .8258 .564 395.33 270.52)">Hemichordates</text>
  <text transform="matrix(.6162 -.7876 .7876 .6162 403.26 276.56)">Cephalochordates</text>
  <text transform="matrix(.6659 -.746 .746 .6659 410.79 283.11)">Urochordates</text>
  <text transform="matrix(.7128 -.7014 .7014 .7128 417.88 290.13)">Hagfishes</text>
  <text transform="matrix(.7567 -.6537 .6537 .7567 424.5 297.59)">Lampreys</text>
  <text transform="matrix(.7974 -.6034 .6034 .7974 430.62 305.47)">Chondrichthyans</text>
  <text transform="matrix(.8348 -.5505 .5505 .8348 436.21 313.73)">Ray-finned fishes</text>
  <text transform="matrix(.8687 -.4953 .4953 .8687 441.27 322.33)">Lobe-finned fishes</text>
  <text transform="matrix(.899 -.438 .438 .899 445.75 331.24)">Lungfishes</text>
  <text transform="matrix(.9254 -.3789 .3789 .9254 449.65 340.42)">Amphibians</text>
  <text transform="matrix(.948 -.3182 .3182 .948 452.95 349.83)">Mammals</text>
  <text transform="matrix(.9666 -.2562 .2562 .9666 455.63 359.44)">Turtles</text>
  <text transform="matrix(.9812 -.1931 .1931 .9812 457.68 369.21)">Lepidosaurs</text>
  <text transform="matrix(.9916 -.1292 .1292 .9916 459.1 379.08)">Crocodilians</text>
  <text transform="matrix(.9979 -.0647 .0647 .9979 459.87 389.03)">Birds</text>
 </g>
</svg>
